<?xml version="1.0" standalone="no"?>
<!DOCTYPE svg PUBLIC "-//W3C//DTD SVG 20010904//EN"
 "http://www.w3.org/TR/2001/REC-SVG-20010904/DTD/svg10.dtd">
<svg version="1.0" xmlns="http://www.w3.org/2000/svg"
 width="282.000000pt" height="242.000000pt" viewBox="0 0 282.000000 242.000000"
 preserveAspectRatio="xMidYMid meet">

<g transform="translate(0.000000,242.000000) scale(0.100000,-0.100000)"
fill="#000000" stroke="none">
<path d="M0 1210 l0 -1210 1410 0 1410 0 0 1210 0 1210 -1410 0 -1410 0 0
-1210z m458 280 c42 -26 62 -73 62 -145 l0 -55 -65 0 -65 0 0 54 c0 57 -15 80
-47 74 -35 -7 -43 -46 -42 -213 1 -191 5 -209 43 -213 37 -5 46 10 46 76 l0
52 65 0 65 0 0 -57 c0 -110 -49 -164 -155 -171 -87 -6 -145 21 -174 82 -19 38
-21 61 -21 227 0 209 11 252 72 289 47 28 169 28 216 0z m323 -150 c18 -93 34
-168 36 -167 2 3 73 324 73 333 0 2 32 4 70 4 l70 0 0 -153 c0 -85 3 -222 7
-305 l6 -152 -51 0 -52 0 0 129 c0 70 -3 150 -7 177 -6 47 -8 41 -43 -126
l-36 -175 -35 -3 -35 -3 -40 188 -39 188 -6 -155 c-4 -85 -7 -170 -8 -187 -1
-32 -2 -33 -46 -33 l-45 0 0 289 c0 159 3 296 6 305 5 12 21 16 74 16 l67 0
34 -170z m627 150 c61 -37 72 -80 72 -289 0 -169 -2 -189 -21 -229 -27 -55
-79 -82 -159 -82 -81 0 -136 29 -160 82 -17 38 -20 66 -20 233 0 214 7 241 69
282 47 32 170 33 219 3z m442 -30 l0 -50 -50 0 -50 0 0 -255 0 -255 -65 0 -65
0 0 255 0 255 -50 0 -50 0 0 43 c0 24 3 47 7 50 3 4 78 7 165 7 l158 0 0 -50z
m329 32 c56 -28 73 -61 78 -144 7 -126 -36 -177 -156 -186 l-71 -5 0 -128 0
-129 -65 0 -65 0 0 305 0 305 123 0 c96 0 129 -4 156 -18z m253 -153 l3 -171
75 169 75 168 43 3 42 3 0 -305 0 -306 -55 0 -55 0 -2 165 -3 165 -74 -165
-74 -165 -43 0 -44 0 0 298 c0 164 3 302 7 305 3 4 28 7 54 7 l49 0 2 -171z
m-1978 -549 c45 -23 69 -63 73 -122 5 -60 -18 -117 -53 -132 -21 -9 -21 -10
10 -31 48 -32 68 -79 62 -149 -5 -62 -22 -95 -70 -130 -24 -18 -45 -21 -162
-24 l-134 -4 0 307 0 307 123 -4 c83 -2 131 -8 151 -18z m636 2 c66 -33 75
-63 78 -277 3 -182 2 -192 -20 -234 -34 -65 -66 -85 -146 -89 -87 -4 -146 23
-176 83 -19 36 -21 58 -21 230 0 213 6 236 75 282 43 30 156 32 210 5z m300
-107 c3 -66 8 -113 12 -105 4 8 25 62 47 120 l39 105 66 3 c36 2 66 1 66 -2 0
-3 -23 -65 -52 -138 -28 -73 -51 -140 -50 -148 0 -8 25 -84 55 -168 l55 -153
-71 3 -70 3 -46 135 -46 135 -3 -137 -3 -138 -69 0 -70 0 0 298 c0 164 3 302
7 306 4 4 34 6 68 4 l60 -3 5 -120z m428 -2 l3 -123 44 0 45 0 0 125 0 126 68
-3 67 -3 3 -302 2 -303 -70 0 -70 0 0 130 0 130 -45 0 -45 0 0 -130 0 -130
-70 0 -70 0 0 298 c0 164 3 302 7 306 4 4 34 6 68 4 l60 -3 3 -122z m603 104
c65 -43 74 -78 74 -287 0 -174 -1 -188 -23 -228 -32 -60 -90 -86 -178 -80 -68
4 -101 21 -138 72 -19 25 -21 44 -24 224 -3 189 -2 199 20 242 31 60 72 80
164 80 57 0 78 -4 105 -23z"/>
<path d="M1269 1403 c-17 -19 -25 -304 -12 -368 8 -37 11 -40 43 -40 32 0 35
3 43 40 14 64 5 349 -12 368 -17 22 -45 22 -62 0z"/>
<path d="M2035 1408 c-3 -8 -5 -46 -3 -84 l3 -69 39 1 c21 1 42 8 47 15 14 22
11 115 -4 128 -24 19 -76 25 -82 9z"/>
<path d="M310 640 l0 -80 30 0 c43 0 70 31 70 80 0 49 -27 80 -70 80 l-30 0 0
-80z"/>
<path d="M312 383 l3 -88 33 2 c42 1 60 17 68 59 13 69 -15 114 -72 114 l-35
0 3 -87z"/>
<path d="M960 710 c-12 -8 -16 -43 -18 -194 -2 -121 1 -192 8 -206 13 -25 65
-28 74 -4 12 31 7 389 -6 402 -14 14 -37 15 -58 2z"/>
<path d="M2282 708 c-13 -13 -18 -371 -6 -402 9 -24 61 -21 74 4 7 14 10 85 8
206 -2 151 -6 186 -18 194 -21 13 -44 12 -58 -2z"/>
</g>
</svg>
